<svg width="600" height="708" viewBox="0 0 600 708" fill="none" xmlns="http://www.w3.org/2000/svg">
<path d="M421.012 467.961C423.589 472.722 427.141 476.757 431.35 479.704C434.055 481.81 436.522 484.29 438.687 487.082C437.02 488.586 435.688 490.504 434.787 492.699C433.885 494.894 433.436 497.313 433.471 499.787C425.192 499.647 419.939 493.825 413.053 491.797C406.675 489.587 400.59 486.268 395.028 481.965C394.188 482.561 393.534 483.428 393.145 484.462C392.756 485.495 392.649 486.651 392.836 487.79C395.406 509.314 398.428 530.763 400.312 552.436C402.218 565.793 400.117 579.216 394.345 590.564C393.858 591.016 393.289 591.35 392.673 591.547C392.058 591.744 391.406 591.8 390.755 591.711C390.105 591.623 389.47 591.392 388.885 591.032C388.299 590.672 387.776 590.189 387.345 589.612C385.346 587.273 383.533 584.743 381.93 582.055C374.185 568.216 368.808 552.981 366.095 537.189C365.687 535.511 365.107 533.88 364.369 532.332C360.682 534.74 359.149 539.928 353.572 539.973C350.31 535.194 351.369 529.276 351.405 523.702C351.44 518.13 352.319 513.263 352.799 508.25C353.417 507.137 353.805 505.873 353.937 504.543C354.069 503.214 353.941 501.851 353.562 500.548C352.031 502.474 351.072 504.902 350.805 507.525C347.612 513.405 344.807 519.558 342.412 525.936C341.229 528.734 339.486 531.16 337.31 533.034C335.134 534.908 332.581 536.181 329.84 536.761C327.18 532.303 325.322 527.338 324.379 522.166C322.247 523.667 320.765 526.072 320.238 528.878C318.025 538.729 313.692 547.691 307.61 555.004C303.994 559.833 302.06 560.964 294.661 562.581C291.176 566.26 291.865 571.219 290.76 575.525C288.541 584.772 287.488 594.284 285.686 603.603C283.991 612.411 281.663 621.01 278.722 629.318C277.2 633.552 273.209 636.328 272.52 640.706C270.782 641.162 268.923 640.936 267.244 640.064C265.564 639.192 264.162 637.725 263.265 635.901C257.611 627.654 254.552 617.634 254.603 607.532C254.191 595.922 255.25 584.405 257.749 573.325C258.735 569.215 259.106 564.961 259.759 560.73C262.631 554.791 264.537 548.276 265.391 541.473L257.565 559.932C256.148 563.006 254.567 565.975 252.83 568.822C249.186 574.159 243.998 577.882 238.075 579.411C236.479 578.83 235.15 578.347 234.886 576.734C233.796 571.359 233.548 565.866 234.153 560.508C235.912 549.258 239.435 538.49 242.094 527.408C244.259 518.381 247.626 509.471 249.259 500.25C249.968 497.81 250.915 495.479 252.084 493.299L256.211 483.629C254.344 482.072 253.597 483.076 252.517 483.96C248.417 487.495 245.074 491.785 241.285 495.832C236.024 502.146 229.228 506.603 221.642 508.712C218.623 507.135 220.806 503.46 218.716 501.024C215.076 500.892 211.499 501.63 208.222 503.19C201.549 504.616 194.617 504.559 187.807 503.02C185.405 502.785 184.228 500.761 182.737 498.542C188.56 485.42 200.398 478.557 212.013 470.814L215.196 463.274C217.047 463.389 217.657 462.654 216.977 460.97C216.539 461.149 216.151 461.444 215.845 461.832C215.539 462.219 215.322 462.689 215.213 463.201C209.159 464.029 205.872 469.297 201.408 472.54C192.718 478.634 186.069 487.066 177.032 492.795C163.806 501.228 151.103 510.49 137.516 518.312C130.82 522.869 123.304 525.83 115.405 527.022C112.313 527.254 110.634 526.722 109.739 523.524C114.285 513.154 120.811 504.129 128.883 497.056C137.25 488.69 146.164 480.762 155.29 473.151C158.297 470.411 161.097 467.402 163.666 464.149C168.95 458.093 173.836 451.891 179.518 445.98C186.71 438.732 194.701 432.532 203.32 427.51C204.458 426.97 205.422 426.079 206.107 424.934L208.191 423.777C209.256 423.749 210.261 423.328 211.055 422.579C211.848 421.83 212.385 420.794 212.583 419.63C210.109 421.204 207.486 420.089 206.431 422.977C206.389 423.191 206.3 423.388 206.173 423.55C206.046 423.712 205.885 423.835 205.702 423.908C198.756 425.196 191.985 427.277 185.492 430.119C181.302 431.81 177.008 433.205 172.635 434.297C172.649 431.829 171.773 429.754 172.855 427.355C178.348 425.457 183.652 423.008 188.705 420.037C189.837 420.453 191.042 420.387 192.081 419.849C193.121 419.31 193.919 418.341 194.317 417.132C193.444 416.852 192.536 416.811 191.67 417.01C190.805 417.209 190.007 417.642 189.345 418.274L184.625 416.556C183.91 412.306 187.393 410.142 189.571 406.786C186.514 406.088 183.397 406.557 180.723 408.114C171.738 412.504 163.192 417.863 155.199 424.121C146.456 430.434 137.166 435.113 128.214 440.792C127.575 441.337 126.801 441.655 125.98 441.711C125.16 441.765 124.33 441.555 123.586 441.103C120.82 433.952 124.106 427.486 128.375 421.14C136.647 410.087 146.708 400.911 158.078 394.046C159.235 392.233 156.899 390.824 158.823 389.13C163.427 385.938 168.477 383.579 173.801 382.134C179.363 381.637 184.708 379.862 189.509 376.918C190.373 377.233 191.304 377.571 192.246 376.957C191.943 375.809 190.943 375.764 190.025 375.669C187.764 373.649 184.664 374.516 182.193 374.574C180.648 374.729 179.07 374.484 177.58 373.859C176.09 373.234 174.725 372.244 173.59 370.964C157.301 378.601 141.048 386.092 125.074 393.924C113.385 399.564 101.86 405.425 90.2856 411.187C84.4487 413.678 78.3544 415.446 72.1063 416.461C70.854 416.74 69.5297 416.539 68.3407 415.888C65.7366 413.185 67.8622 410.048 69.5596 407.793C72.6482 402.841 76.6628 398.73 81.3461 395.724C83.0313 394.939 84.4852 393.672 85.5713 392.044C86.6575 390.415 87.3402 388.478 87.5553 386.413C88.5937 380.585 90.1686 374.928 92.2559 369.53C94.0167 362.191 97.8384 355.602 99.3333 348.166C102.606 335.749 107.063 323.836 112.63 312.627C108.667 310.639 105.099 307.704 102.186 304.038C104.159 299.729 104.159 299.729 111.281 296.256C111.658 295.923 111.993 295.535 112.28 295.103C114.56 288.217 118.486 282.26 123.647 277.854C124.324 277.143 124.885 276.31 125.513 275.501C126.193 275.509 126.837 275.241 127.328 274.745C127.819 274.249 128.123 273.559 128.184 272.802L129.437 272.7L129.13 271.87L128.135 272.704C127.772 272.503 127.361 272.465 126.991 272.599C126.621 272.733 126.321 273.028 126.156 273.42C119.015 274.597 112.308 277.615 106.547 282.244C95.9971 289.501 85.9753 297.642 76.5614 306.602C74.5986 309.226 71.9132 311.04 68.8847 311.787C66.9647 310.45 66.7847 308.789 67.53 306.586C70.036 299.27 74.0601 292.811 79.2838 287.722C86.276 280.126 94.5705 274.182 103.726 270.205C108.39 268.262 113.284 266.988 118.297 266.411C124.555 265.022 131.017 264.684 137.474 265.411C138.107 265.548 138.75 265.534 139.362 265.372C139.974 265.21 140.54 264.902 141.025 264.469C145.86 261.534 150.542 258.31 155.052 254.811C152.411 251.057 149.549 247.621 147.506 244.084C146.798 242.862 145.735 241.943 144.512 241.498C143.29 241.053 141.992 241.112 140.858 241.665C134.301 243.296 127.589 244.246 120.806 244.501C117.028 244.94 113.151 244.004 109.738 241.829C114.164 230.912 124.635 227.94 134.08 222.919L131.406 215.082L117.646 210.074C116.805 207.853 117.822 206.627 119.539 205.497C126.439 201.197 134.716 200.175 142.629 202.649C147.016 204.246 151.337 205.819 155.26 207.246C156.928 206.018 156.908 204.894 156.034 204.017C151.347 197.313 147.414 190.008 144.335 182.282C138.158 170.96 132.562 159.277 127.575 147.294C126.223 144.389 125.566 141.176 125.67 137.988C125.774 134.799 126.637 131.751 128.168 129.157C129.497 129.64 130.739 130.491 132.298 130.021C131.918 128.287 131.353 126.725 129.338 126.39C124.91 121.347 120.278 116.549 116.12 111.285C112.107 106.793 109.099 101.308 107.37 95.332C107.761 94.2085 108.453 93.2644 109.355 92.6238C110.256 91.9838 111.326 91.6773 112.423 91.7452C119.03 91.1662 125.756 92.9174 131.676 96.7579C140.562 103.228 148.669 111.014 155.762 119.888C157.178 121.521 158.12 123.619 160.212 124.54C160.174 124.736 160.172 124.94 160.204 125.142C160.237 125.344 160.305 125.539 160.404 125.716C160.502 125.892 160.63 126.048 160.779 126.173C160.928 126.297 161.096 126.389 161.274 126.443C160.781 128.498 160.463 129.818 163.422 129.539C163.446 127.632 163.483 125.97 162.011 124.876C161.664 124.664 161.336 124.412 161.035 124.121C161.521 123.014 161.73 121.763 161.64 120.498C161.55 119.232 161.165 117.995 160.524 116.913C157.189 109.277 154.767 101.228 153.326 92.9862C151.908 79.8205 152.134 66.6059 153.998 53.73C155.559 46.5607 159.368 40.3978 164.749 36.3362C165.973 36.2637 167.209 36.6514 168.263 37.439C169.316 38.2271 170.128 39.3699 170.571 40.6898C174.348 49.2441 176.466 58.5113 176.777 67.8466L177.458 73.4412C183.616 76.9084 189.028 81.9435 193.236 88.121C192.708 90.3227 192.68 92.5471 195.84 93.5376C196.368 91.3359 196.685 90.015 195.15 88.5786C195.696 86.3032 196.224 84.1015 196.752 81.8998C198.812 73.3127 201.439 64.773 203.933 56.1845C205.447 51.4477 208.504 47.6142 212.515 45.4225L217.581 44.7925C221.298 42.5547 222.097 37.4189 226.346 35.3748C227.26 35.3468 228.179 35.5877 229.013 36.0731C229.847 36.5584 230.567 37.2717 231.103 38.1433C235.133 45.1237 237.659 52.9964 238.463 61.0912C240.533 82.5925 243.258 103.774 243.472 125.477C243.865 136.059 243.533 146.609 242.478 157.036C246.352 152.589 251.271 149.45 256.732 147.94C258.621 147.911 260.513 148.461 262.204 149.533C262.081 150.046 262.657 150.655 262.552 151.095C258.346 163.028 252.771 174.219 245.96 184.398C241.639 189.851 238.279 196.198 236.045 203.133C240.117 199.661 245.144 197.802 250.401 197.825C250.906 197.482 251.329 197.011 251.64 196.447C251.95 195.884 252.14 195.241 252.195 194.568C254.784 183.529 258.782 173.054 264.067 163.457C267.095 157.397 270.66 151.719 274.713 146.504C279.644 140.865 286.106 137.193 293.207 135.999C293.728 136.26 294.163 136.713 294.436 137.278C294.709 137.844 294.804 138.487 294.705 139.098C292.722 148.36 289.334 157.083 284.684 164.897C280.606 171.371 277.508 178.592 275.503 186.293C274.104 189.695 273.224 193.363 272.897 197.155C275.48 194.487 277.629 191.334 279.257 187.819C282.408 180.108 286.157 172.615 288.909 164.758C291.089 158.689 292.718 152.499 295.097 146.502C298.831 138.429 303.269 130.826 308.35 123.795C312.694 117.925 318.729 113.95 325.519 112.488C329.169 115.652 328.379 120.152 327.166 123.701C325.72 129.748 323.849 135.63 321.572 141.295C319.42 144.127 317.62 147.28 316.213 150.676C314.452 158.016 311.385 165.678 309.253 173.36C306.79 182.356 303.815 191.135 300.345 199.644C293.391 215.208 285.033 229.862 275.394 243.39C272.483 248.053 269.357 252.535 266.027 256.819L264.577 284.859C267.94 284.657 271.339 285.589 274.344 287.536C275.017 281.717 270.878 277.577 273.993 272.725C277.061 271.688 278.979 274.54 281.703 274.334C282.141 274.015 282.712 273.744 282.866 273.402C284.467 268.319 286.683 263.543 289.454 259.201C297.705 247.799 306.958 237.379 317.086 228.082L320.745 225.183C323.357 222.484 326.617 220.68 330.176 219.965C333.735 219.25 337.458 219.651 340.946 221.125C344.767 219.962 348.275 217.089 352.715 218.465C356.129 212.367 352.898 205.046 358.444 199.404C360.399 201.048 362.06 203.103 363.325 205.443C364.59 207.782 365.434 210.359 365.804 213.015C367.428 219.99 368.486 227.08 368.963 234.195C370.291 248.244 371.016 262.393 371.675 276.518C371.95 285.244 371.792 293.952 371.2 302.6C370.979 307.104 372.007 311.659 374.143 315.641C377.185 312.845 379.755 309.464 381.747 305.64C385.016 300.447 388.916 295.641 392.55 290.739C398.702 282.231 402.709 271.957 404.19 260.901C405.419 253.369 406.249 245.691 407.239 238.55C408.037 234.221 409.809 230.255 412.391 227.019C416.381 232.869 418.909 239.757 419.69 246.912C420.633 254.003 420.718 261.149 419.943 268.151C422.076 269.805 423.615 268.211 425.16 267.497C430.598 265.043 436.268 263.205 442.089 262.007C444.059 261.539 446.15 261.823 448.039 262.816C448.875 264.924 449.3 267.186 449.284 269.441C449.267 271.696 448.809 273.89 447.943 275.869C445.095 285.372 440.215 293.83 433.713 300.535C423.365 311.822 413.692 323.867 404.751 336.596L394.124 350.764C393.836 351.105 393.686 351.566 393.706 352.05C393.724 352.534 393.91 353.002 394.225 353.354C398.566 350.625 402.862 347.48 407.584 344.97C415.542 339.609 424.029 335.236 432.905 331.921C442.236 329.296 451.986 328.475 461.75 329.493C464.541 329.98 467.324 329.214 469.489 327.362C477.216 321.605 485.606 316.992 494.468 313.63C496.44 312.917 498.474 312.402 500.547 312.092C502.846 312.451 502.5 314.798 504.002 314.866C503.486 321.385 501.973 327.69 499.53 333.507C497.788 338.229 495.178 342.44 491.863 345.879C483.424 357.098 474.102 367.428 464 376.755C464 376.755 463.877 377.269 463.718 377.929C468.622 380.991 474.877 381.432 479.798 384.42C484.683 386.578 489.17 389.843 492.967 394.001C493.236 399.206 489.212 400.614 485.643 401.63C484.314 401.146 483.434 402.103 481.482 403.308C483.285 403.325 484.208 404.3 485.162 402.732C489.55 404.329 493.937 405.926 498.458 407.571C507.009 411.248 514.512 417.71 519.963 426.091C519.606 428.489 518.581 430.656 517.032 432.286C513.348 433.529 509.326 433.328 505.603 431.717C500.178 429.662 494.461 429.145 488.977 430.215C482.209 431.317 475.275 431.293 468.394 430.145C468.061 430.024 467.62 430.66 466.845 431.177C472.648 437.119 478.468 442.988 484.27 448.93C488.186 453.057 491.432 457.917 493.842 463.266C494.637 465.072 494.267 466.614 492.644 468.257C486.616 466.568 481.004 463.121 476.391 458.272C472.608 455.06 468.927 451.725 464.891 448.66C464.137 447.921 463.244 447.391 462.291 447.114C461.337 446.836 460.351 446.82 459.419 447.067C456.921 447.849 454.257 447.929 451.652 447.301C449.047 446.672 446.578 445.353 444.456 443.457C441.083 440.856 437.489 438.664 433.736 436.922C431.978 438.173 429.96 438.928 427.842 439.127C425.724 439.325 423.564 438.962 421.535 438.067C419.757 437.024 417.824 436.408 415.865 436.259C413.907 436.11 411.967 436.433 410.177 437.204C417.25 440.258 425.159 441.94 428.39 449.26C428.435 452.389 426.157 454.353 425.62 457.189C433.06 461.732 440.429 466.569 448.12 470.965C449.261 471.478 450.257 472.358 450.979 473.489C451.701 474.62 452.114 475.95 452.164 477.305C450.463 479.877 448.399 479.445 446.17 478.794C440.154 476.492 434.329 473.516 428.784 469.912C426.433 468.629 424.028 467.487 421.582 466.492C421.578 464.097 419.859 464.03 418.039 464.086C418.055 464.999 418.366 465.894 418.912 466.606C419.459 467.319 420.204 467.8 421.012 467.961ZM136.22 347.467C143.099 341.991 151.434 344.307 159.156 342.249C159.888 339.309 161.129 336.59 162.812 334.243C165.412 331.838 164.079 328.959 166.082 326.336C170.082 324.469 173.39 321.21 175.546 317.013C178.017 313.044 183.6 311.166 183.821 305.422L171.19 300.824C162.16 305.88 152.49 309.501 142.443 311.588C137.014 317.945 132.758 325.464 129.896 333.755C127.588 341.46 124.823 348.957 121.62 356.198C119.328 361.3 117.762 366.812 116.977 372.543C122.666 374.135 125.75 369.113 130.017 366.995C128.4 364.093 125.921 362.073 126.7 358.526C128.812 355.145 133.082 355.423 136.006 352.576C135.574 351.062 134.691 349.624 136.22 347.467ZM213.562 55.22C208.886 59.3439 210.053 63.5193 208.423 66.996C204.681 76.1947 202.174 86.0339 200.982 96.2073C199.855 101.945 200.363 108.039 202.434 113.653C204.228 118.461 205.653 123.413 206.69 128.45C209.149 140.197 211.204 152.117 213.277 163.964C213.496 165.161 213.83 166.479 216.11 165.713C216.782 148.871 215.841 131.887 213.301 115.055C211.275 101.061 210.589 86.9528 211.253 72.9736C211.503 67.7177 212.69 62.1647 213.694 55.2683L213.562 55.22ZM244.458 221.996C242.392 220.33 240.018 219.246 237.552 218.844C232.82 223.505 230.354 229.87 225.643 234.14C226.969 239.013 229.074 243.621 231.851 247.731C233.903 251.83 234.323 257.01 238.714 261.002C241.939 248.371 243.866 235.287 244.458 221.996ZM401.286 374.837C401.403 376.156 402.148 376.666 402.786 376.42C410.859 373.272 418.6 369.25 425.907 364.407C426.518 364.117 427 363.577 427.258 362.891C427.516 362.204 427.532 361.418 427.305 360.686C417.934 363.771 409.151 368.547 401.286 374.837ZM263.878 294.101C262.913 300.533 262.146 305.84 265.874 310.787C267.626 309.034 268.821 306.682 269.296 304.053C267.905 300.514 267.465 296.923 263.948 293.807L263.878 294.101ZM180.446 246.577C178.588 241.671 176.906 239.942 170.284 236.814C173.531 240.151 173.806 246.235 180.446 246.577ZM251.79 276.694C246.618 280.477 245.414 283.391 247.765 286.241C248.954 284.6 251.133 283.956 251.864 281.509L251.79 276.694ZM238.127 262.544C238.127 262.544 238.127 262.544 238.459 262.665C238.791 262.786 239.013 262.468 238.964 262.37C238.915 262.272 239.123 261.709 238.299 262.128L238.127 262.544ZM215.221 418.276L214.632 418.621C214.632 418.621 214.545 418.987 214.842 419.255L215.549 418.715L215.221 418.276Z" fill="#E9C0E9"/>
</svg>
