<svg viewBox="0 0 616 953" fill="none" xmlns="http://www.w3.org/2000/svg"><path d="M215.26 0L237.071 6.05387L236.609 6.70186C238.836 8.22799 241.162 9.60412 243.572 10.8208C244.264 11.1227 245.659 9.84455 246.884 9.20541C249.175 11.9306 256.164 13.7149 259.876 11.8685C263.81 9.93332 267.531 7.56319 271.492 5.65467C272.803 5.24764 274.219 5.35544 275.453 5.95634C279.005 7.55418 282.557 7.82929 286.394 8.3264C294.103 9.43644 301.651 11.4631 308.879 14.3629C311.312 15.3039 312.431 19.4846 314.332 22.0678C315.495 23.6656 315.993 28.0418 319.154 23.0885C320.859 20.4255 328.408 20.8252 331.063 23.3729C334.118 26.3022 336.738 29.6842 339.642 32.7733C341.08 34.2913 342.741 35.5964 344.775 37.425L339.375 38.4813C346.08 39.8838 351.728 40.5763 357.03 42.3251C361.275 43.7276 366.408 44.7217 367.633 50.4473C367.74 50.9178 368.388 51.6633 368.734 51.6367C371.585 51.4502 374.462 53.6694 376.229 53.5806C380.759 53.3587 381.877 56.9897 384.639 58.5609C386.042 59.3598 387.304 60.336 388.929 61.3834C386.522 64.3039 387.792 66.47 390.598 67.4464C394.905 68.9555 394.026 71.8314 393.484 75.036C393.307 76.0479 394.106 77.9124 394.959 78.2941C397.735 79.56 400.641 80.5182 403.626 81.1522C408.066 82.0399 407.4 86.3987 409.283 88.9819C411.947 92.6924 413.803 97.0421 416.236 100.966C416.947 102.129 418.465 102.785 420.108 104.055C419.682 104.525 418.918 105.395 418.163 106.247C422 112.461 425.685 118.675 424.104 126.575C423.874 127.756 424.566 129.105 424.744 130.392C425.099 132.976 426.476 136.073 425.543 138.062C422.169 145.163 426.733 150.134 429.389 155.665C430.348 157.644 431.591 159.5 432.426 161.533C432.692 162.189 432.044 163.219 431.822 164.08C430.987 163.734 429.833 163.618 429.38 162.997C428.338 161.388 427.403 159.713 426.582 157.982C423.403 162.42 423.536 163.308 427.257 165.021L424.948 167.098C426.387 167.453 427.719 167.489 428.705 168.084C430.685 169.291 433.145 170.409 434.202 172.265C437.212 177.635 437.869 183.653 437.496 189.787C437.403 191.267 437.438 192.752 437.603 194.226C437.878 196.693 437.123 197.714 434.415 197.528C430.481 197.253 429.681 198.584 430.809 202.135C431.227 203.449 430.738 205.029 430.987 206.431C431.342 208.393 431.991 210.311 432.71 212.983L427.879 219.498C426.778 227.887 425.534 237.891 421.662 247.327C417.48 257.474 413.057 267.531 409.043 277.739C408.101 280.206 407.855 282.884 408.333 285.48C410.792 297.269 405.109 304.041 394.284 309.918C392.704 310.687 391.333 311.826 390.287 313.238C384.16 323.003 377.757 332.572 372.313 342.683C366.79 352.918 363.196 364.081 361.71 375.616C361.017 380.942 357.713 385.886 355.635 391.026C355.248 391.951 355.005 392.93 354.916 393.929C354.641 398.598 354.454 403.285 354.259 407.244C358.504 411.327 363.211 415.073 366.923 419.672C371.096 424.794 370.901 430.75 367.962 436.733C365.493 441.74 363.424 446.941 361.204 452.063C360.448 453.756 360.134 455.612 360.289 457.459C360.444 459.306 361.064 461.084 362.092 462.627C366.305 469.768 368.812 477.784 369.418 486.053C369.534 487.437 371.709 489.186 373.299 489.808C376.567 491.086 380.163 491.495 383.476 492.657C398.475 497.904 402.8 508.929 401.717 524.153C401.61 525.626 401.361 527.082 401.113 528.538C399.39 538.355 402.001 545.927 409.674 553.206C418.98 561.977 427.523 571.439 437.869 579.224C444.219 584.018 448.863 591.031 454.512 596.818C470.266 612.992 486.73 628.376 504.634 642.206C519.581 653.808 532.806 667.473 543.912 682.791C552.038 693.914 558.627 706.163 565.883 717.925C570.758 725.808 575.651 733.673 580.402 741.644C581.821 744.035 582.928 746.598 583.697 749.269C589.372 768.799 595.366 788.177 600.375 807.857C604.362 823.533 607.985 839.414 610.188 855.428C612.799 874.38 614.122 893.545 615.223 912.666C615.996 925.902 615.445 939.217 615.481 952.496H15.8561C14.4974 947.268 13.3519 941.968 11.7267 936.811C6.49606 920.185 3.92946 903.212 4.95072 885.778C5.34642 879.42 4.12434 873.064 1.3985 867.305C-1.1147 861.908 -0.377614 857.878 4.72871 854.585C12.9166 849.259 15.0124 841.704 14.0533 832.783C11.9664 813.574 9.1691 794.426 7.72156 775.172C6.83351 762.86 7.30426 750.371 8.02358 738.014C8.84947 724.033 10.6345 710.105 12.0109 696.16C13.158 684.084 16.4668 672.312 21.7796 661.406C24.7368 655.352 27.7828 649.334 30.8644 643.342C35.2336 634.812 43.2971 630.196 50.597 624.701C59.291 618.159 67.923 611.501 76.8391 605.26C81.8563 601.641 87.2091 598.511 92.8241 595.913C106.935 589.619 121.322 583.929 135.522 577.84C144.988 573.774 154.322 569.406 163.744 565.243C166.808 563.894 167.589 562.128 166.852 558.63C165.964 554.556 166.533 550.197 166.213 545.981C166.026 543.451 165.831 540.743 164.819 538.479C162.154 532.559 161.915 526.869 164.899 521.046C167.723 515.542 170.431 509.976 173.389 504.02C167.927 499.981 163.362 495.311 163.211 488.228C163.087 482.511 161.435 477.415 159.331 472.125C157.439 467.376 157.483 461.854 156.595 456.147L149.411 457.327C139.136 459.014 128.852 459.68 118.675 456.786C105.559 453.058 98.2501 444.065 95.4794 430.963C93.8986 423.48 92.3178 415.97 90.2753 408.602C89.6092 406.223 87.7799 403.951 85.9594 402.158C81.8211 398.074 79.1569 393.041 79.743 387.573C80.6311 379.921 78.553 372.935 76.8213 365.86C73.8019 353.548 69.6635 341.502 66.9904 329.128C62.9054 310.175 64.0776 291.578 73.642 274.144C74.0682 273.372 74.459 272.573 74.8143 271.765C76.2707 268.472 78.9702 265.09 73.9793 262.525C77.4428 256.728 77.4428 256.728 72.745 253.878C73.3311 252.733 73.9351 251.562 74.7787 249.937C70.9689 250.026 66.8927 251.864 65.3474 247.212C65.0899 246.431 66.7241 245.019 67.4878 243.892C64.1132 241.522 64.4417 239.258 68.7932 236.577C68.2337 230.363 67.1502 224.15 67.3278 218.042C67.4983 214.117 68.699 210.306 70.8091 206.991C75.9776 199.002 77.3984 190.018 79.3966 181.141C81.8298 170.374 83.8369 159.499 86.3768 148.767C87.5668 143.761 89.7512 139.003 91.3053 134.067C91.5895 133.135 91.0034 131.937 90.2041 131.067C90.8435 129.016 91.3676 126.939 92.1314 124.942C92.8951 122.945 93.4189 120.503 94.8664 119.172C99.1646 115.124 99.7952 112.958 95.1684 108.768C91.9359 105.874 87.5666 104.143 83.5526 102.235C77.0609 99.1545 75.498 94.6273 78.9703 88.236C79.5831 87.0997 79.7874 85.7415 80.4091 84.6141C81.1126 83.1875 82.0091 81.8645 83.0732 80.682C85.4177 78.3296 87.9574 76.1724 90.435 73.9177L86.9895 68.5916L87.984 67.3489L93.2237 70.7397C99.6798 66.5321 103.125 60.7267 101.616 58.6939L106.989 51.1664C107.557 46.3729 108.125 41.5793 108.711 36.6526C104.928 36.768 103.383 39.5375 103.774 42.742C104.129 45.6359 105.87 48.3702 106.997 51.1664C102.495 49.6484 101.58 45.9467 101.873 41.9432C102.157 38.1084 104.386 35.4721 108.232 34.3181C114.057 32.5427 119.857 30.6874 125.673 28.9031C126.704 28.7303 127.746 28.6296 128.79 28.6015L126.384 30.4566L126.632 31.2823L135.611 29.2937L139.163 35.1967L140.77 34.309L138.55 30.1103L142.99 25.9648L148.123 27.1542L148.727 26.0892L145.681 23.1951L146.027 22.4141L151.853 24.7932C153.825 22.1302 155.858 19.0143 158.265 16.2358C159.464 14.8688 161.267 13.4308 162.954 13.2C166.835 12.6674 170.831 13.067 174.738 12.6409C176.367 12.3687 177.825 11.4741 178.806 10.1464C181.594 6.0453 185.91 5.58364 190.43 4.08345C189.054 7.11933 190.093 8.26419 192.42 7.81147C194.95 7.31436 197.375 6.27615 199.604 6.42706C200.927 6.69337 202.712 7.62544 203.494 7.09282C206.031 5.17177 208.448 3.09659 210.731 0.879018C210.794 1.85547 210.873 2.83153 210.953 3.79911L215.9 2.42337L215.26 0Z" fill="#02ACC4"/></svg>