<svg width="36" height="26" viewBox="0 0 36 26" fill="none" xmlns="http://www.w3.org/2000/svg">
<path fill-rule="evenodd" clip-rule="evenodd" d="M18 1.53711C14.8866 1.53711 14.4969 1.54985 13.2742 1.60589C12.0541 1.66192 11.2205 1.85552 10.4913 2.1389C9.72652 2.4267 9.0337 2.87786 8.46117 3.46092C7.87822 4.03355 7.42707 4.72634 7.13914 5.49109C6.85576 6.22024 6.66153 7.05383 6.60613 8.2746C6.55073 9.49664 6.53735 9.88574 6.53735 12.9998C6.53735 16.1138 6.55009 16.5029 6.60613 17.7255C6.66217 18.9457 6.85576 19.7793 7.13914 20.5084C7.42694 21.2732 7.8781 21.9661 8.46117 22.5386C9.09798 23.1754 9.73798 23.5677 10.4913 23.8606C11.2205 24.144 12.0541 24.3382 13.2742 24.3936C14.4969 24.449 14.8866 24.4624 18 24.4624C21.1134 24.4624 21.5031 24.4497 22.7258 24.3936C23.9459 24.3376 24.7795 24.144 25.5087 23.8606C26.2735 23.5728 26.9663 23.1216 27.5388 22.5386C28.1756 21.9018 28.5679 21.2618 28.8609 20.5084C29.1442 19.7793 29.3385 18.9457 29.3939 17.7255C29.4493 16.5029 29.4626 16.1131 29.4626 12.9998C29.4626 9.88637 29.4499 9.49664 29.3939 8.27396C29.3378 7.05383 29.1442 6.22024 28.8609 5.49109C28.573 4.72629 28.1219 4.03347 27.5388 3.46092C26.9662 2.87797 26.2734 2.42683 25.5087 2.1389C24.7795 1.85552 23.9459 1.66129 22.7252 1.60589C21.5031 1.55048 21.114 1.53711 18 1.53711ZM17.9995 16.8256C17.4972 16.8256 16.9998 16.7266 16.5358 16.5344C16.0718 16.3422 15.6501 16.0605 15.295 15.7053C14.9398 15.3502 14.6581 14.9286 14.4659 14.4645C14.2737 14.0005 14.1748 13.5031 14.1748 13.0009C14.1748 12.4986 14.2737 12.0013 14.4659 11.5372C14.6581 11.0732 14.9398 10.6516 15.295 10.2964C15.6501 9.94124 16.0718 9.65952 16.5358 9.46731C16.9998 9.2751 17.4972 9.17617 17.9995 9.17617C19.0138 9.17617 19.9867 9.57913 20.7039 10.2964C21.4212 11.0137 21.8242 11.9865 21.8242 13.0009C21.8242 14.0152 21.4212 14.9881 20.7039 15.7053C19.9867 16.4226 19.0138 16.8256 17.9995 16.8256V16.8256ZM17.9995 7.10907C16.4369 7.10907 14.9383 7.72981 13.8333 8.83474C12.7284 9.93967 12.1077 11.4383 12.1077 13.0009C12.1077 14.5635 12.7284 16.0621 13.8333 17.167C14.9383 18.2719 16.4369 18.8927 17.9995 18.8927C19.5621 18.8927 21.0607 18.2719 22.1656 17.167C23.2705 16.0621 23.8913 14.5635 23.8913 13.0009C23.8913 11.4383 23.2705 9.93967 22.1656 8.83474C21.0607 7.72981 19.5621 7.10907 17.9995 7.10907ZM25.6056 7.00209C25.6056 7.37146 25.4588 7.7257 25.1977 7.98688C24.9365 8.24807 24.5822 8.3948 24.2129 8.3948C23.8435 8.3948 23.4892 8.24807 23.2281 7.98688C22.9669 7.7257 22.8201 7.37146 22.8201 7.00209C22.8201 6.63272 22.9669 6.27847 23.2281 6.01729C23.4892 5.75611 23.8435 5.60938 24.2129 5.60938C24.5822 5.60937 24.9365 5.75611 25.1977 6.01729C25.4588 6.27847 25.6056 6.63272 25.6056 7.00209" fill="white"></path>
</svg>