<svg width="36" height="26" viewBox="0 0 36 26" fill="none" xmlns="http://www.w3.org/2000/svg">
<path d="M22.6393 9.10226V17.3229C22.6393 21.4277 19.2956 24.7715 15.1908 24.7715C13.6087 24.7715 12.1292 24.2669 10.9234 23.4203C8.99929 22.0691 7.74219 19.8371 7.74219 17.3229C7.74219 13.2095 11.0774 9.87432 15.1822 9.87432C15.5243 9.87432 15.8578 9.89998 16.1913 9.94274V14.0732H16.1571C16.0117 14.0305 15.8578 13.9877 15.7039 13.9621H15.6354C15.4815 13.945 15.3361 13.9193 15.1736 13.9193C13.2923 13.9193 11.7615 15.4501 11.7615 17.3314C11.7615 19.2128 13.2923 20.7436 15.1736 20.7436C17.055 20.7436 18.5858 19.2128 18.5858 17.3314V1.22852H22.6308C22.6308 1.57914 22.665 1.92121 22.7248 2.25472C23.0156 3.79404 23.9221 5.11956 25.1963 5.94908C26.0857 6.53059 27.129 6.86411 28.2578 6.86411V10.9091C26.1664 10.9091 24.2199 10.2359 22.6393 9.10226Z" fill="white"></path>
</svg>